<svg xmlns="http://www.w3.org/2000/svg" width="39.85" height="35"><path d="M39.75 32.288l-1.58-5.5a.765.765 0 00-.18-.3 9.234 9.234 0 00-6.43-6.066l-.45-.075a1.881 1.881 0 00-1.92.6c-1.66 1.885-3.76 2.035-5.98 2.035s-4.32-.15-5.98-2.035a1.871 1.871 0 00-1.91-.6l-.46.112a9.323 9.323 0 00-5.48 4.031H4.64a.083.083 0 01-.08-.036 1.08 1.08 0 01-.03-.152l.97-3.5c.87-2.75 2.52-3.58 5.76-4.407a.682.682 0 00.33-.189 4.478 4.478 0 00.87.565.55.55 0 00.34.075.785.785 0 00.67-.413.756.756 0 00-.33-1.017c-1.73-.9-2.97-3.466-2.97-6.105a4.266 4.266 0 014.24-4.256 4.765 4.765 0 011.28.189 8.7 8.7 0 00-.64 3.277c0 6.443 3.87 11.866 8.46 11.866 4.51 0 8.5-5.536 8.5-11.866a8.478 8.478 0 00-15.6-4.635 6.046 6.046 0 00-2-.337 5.753 5.753 0 00-4.85 2.712.76.76 0 00-.22-.152 3.632 3.632 0 00-1.77-.413 3.741 3.741 0 00-3.8 3.767 6.467 6.467 0 00.87 3.241c-1.73.452-3.27 1.13-3.99 3.427l-.6 2.186a1.269 1.269 0 001.24 1.619h2.9c-.04.152-.11.3-.15.451l-.98 3.543A1.662 1.662 0 004.64 26h3.98a7.969 7.969 0 00-.26.79l-1.58 5.539a2.143 2.143 0 00.38 1.844 2.083 2.083 0 001.65.83h28.91a2.06 2.06 0 001.66-.83 2.1 2.1 0 00.37-1.885zM17.31 5.349a.488.488 0 00.11-.149c.04-.038.04-.115.08-.151a6.851 6.851 0 016.01-3.542 7.023 7.023 0 016.66 4.9 3.548 3.548 0 01-3.54-1.4.73.73 0 00-1.05-.151.6.6 0 00-.26.378c-.04.037-.04.076-.08.111-1.05 2.149-4.59 3.053-8.61 2.26a7.751 7.751 0 01.68-2.256zm2.1 4.032c3.01 0 5.49-.942 6.77-2.713a5.026 5.026 0 003.35 1.282 4.053 4.053 0 00.94-.113 4.57 4.57 0 01.03.64c0 5.538-3.27 10.4-6.99 10.4-3.57 0-6.69-4.481-6.95-9.756a15.191 15.191 0 002.85.26zM1.59 18.422l.53-1.882c.45-1.545 1.39-2 3.27-2.45a.725.725 0 00.3-.15 3.054 3.054 0 00.57.378.54.54 0 00.33.074.788.788 0 00.68-.414.774.774 0 00-.3-1.018 4.076 4.076 0 01-1.69-3.5 2.277 2.277 0 012.29-2.3 2.1 2.1 0 011.09.264.883.883 0 00.3.075 5.641 5.641 0 00-.3 1.807 9.7 9.7 0 001.84 5.728c-2.25.566-4.24 1.318-5.56 3.389H1.59zm36.62 14.847a.644.644 0 01-.49.224H8.81a.6.6 0 01-.6-.753l1.58-5.5a7.683 7.683 0 015.45-5.313l.45-.113a.5.5 0 01.42.151c2.06 2.375 4.62 2.562 7.1 2.562s5.04-.187 7.11-2.562a.476.476 0 01.45-.151l.45.113a7.753 7.753 0 015.45 5.313l.68 2.335a.511.511 0 00.15.264l.82 2.864a.748.748 0 01-.11.565z" fill="#a3acb5" fill-rule="evenodd"/></svg>