<svg xmlns="http://www.w3.org/2000/svg" width="18.5" height="19.937"><path d="M18.5 5.137c-.01-.538-.02-1.049-.02-1.538a.741.741 0 00-.78-.695 11.3 11.3 0 01-7.91-2.7.838.838 0 00-1.08 0 11.3 11.3 0 01-7.91 2.7.741.741 0 00-.78.695c0 .489-.01 1-.02 1.538-.1 5.008-.25 11.869 9 14.764a.863.863 0 00.5 0c9.25-2.896 9.11-9.758 9-14.764zM9.25 18.5c-7.93-2.6-7.81-8.3-7.7-13.336 0-.3.01-.6.01-.881a12.558 12.558 0 0115.38 0c0 .285.01.578.01.881.11 5.034.23 10.732-7.7 13.335zm2.66-10.955l-3.73 3.37-1.59-1.436a.825.825 0 00-1.09 0 .654.654 0 000 .987l2.14 1.929a.787.787 0 00.54.2.812.812 0 00.55-.2L13 8.533a.655.655 0 000-.988.835.835 0 00-1.09-.001z" fill="#ff6b00" fill-rule="evenodd"/></svg>