<svg xmlns="http://www.w3.org/2000/svg" width="26" height="41"><path d="M22 25.515l-8.8-3.014a.606.606 0 00-.4 0l-6.33 2.166a.6.6 0 00-.38.764.616.616 0 00.78.37l6.13-2.1 8.16 2.8a17.241 17.241 0 01-1.12 4.594A17.777 17.777 0 0113 39.69a17.777 17.777 0 01-7.04-8.595 16.416 16.416 0 01-1.15-5.026.608.608 0 00-.61-.585h-.02a.6.6 0 00-.59.612 17.266 17.266 0 001.21 5.382 19.011 19.011 0 007.88 9.432.606.606 0 00.64 0 19.009 19.009 0 007.88-9.433 17.262 17.262 0 001.21-5.382.6.6 0 00-.41-.58zm-5.03 3.391a.616.616 0 00-.86 0l-3.78 3.72-2.25-2.212a.613.613 0 00-.86 0 .591.591 0 000 .85l2.68 2.638a.613.613 0 00.86 0l4.21-4.145a.592.592 0 000-.851zm6.89-8.546l-4.94-2.432a1.32 1.32 0 01-.75-1.184v-2.33a6.969 6.969 0 001.96-4.826V5.737C20.13 2.572 16.93 0 13 0S5.87 2.572 5.87 5.737v3.851a6.97 6.97 0 001.96 4.826v2.33a1.32 1.32 0 01-.75 1.184L2.14 20.36A3.784 3.784 0 000 23.768v3.794a1.9 1.9 0 001.91 1.884.6.6 0 100-1.2.688.688 0 01-.69-.684v-3.794a2.585 2.585 0 011.47-2.334L7.63 19a2.516 2.516 0 001.42-2.257v-1.314c.12.084.25.162.38.236a.62.62 0 00.84-.219.607.607 0 00-.23-.821 5.825 5.825 0 01-2.95-5.039v-3.85c0-2.5 2.65-4.535 5.91-4.535s5.91 2.034 5.91 4.535v3.851a5.829 5.829 0 01-2.95 5.04.589.589 0 00-.23.82.62.62 0 00.84.219c.13-.075.26-.154.38-.237v1.314A2.516 2.516 0 0018.37 19l4.94 2.433a2.585 2.585 0 011.47 2.334v3.794a.688.688 0 01-.69.684.6.6 0 100 1.2A1.9 1.9 0 0026 27.561v-3.793a3.784 3.784 0 00-2.14-3.408z" fill="#a3acb5" fill-rule="evenodd"/></svg>